<mxfile host="app.diagrams.net" agent="Mozilla/5.0 (Windows NT 10.0; Win64; x64) AppleWebKit/537.36 (KHTML, like Gecko) Chrome/133.0.0.0 Safari/537.36" version="26.1.0">
  <diagram id="C5RBs43oDa-KdzZeNtuy" name="Page-1">
    <mxGraphModel grid="1" page="1" gridSize="10" guides="1" tooltips="1" connect="1" arrows="1" fold="1" pageScale="1" pageWidth="827" pageHeight="1169" math="0" shadow="0">
      <root>
        <mxCell id="WIyWlLk6GJQsqaUBKTNV-0" />
        <mxCell id="WIyWlLk6GJQsqaUBKTNV-1" parent="WIyWlLk6GJQsqaUBKTNV-0" />
        <mxCell id="xrPTYMuA59O_ZaZZabX0-4" style="rounded=0;orthogonalLoop=1;jettySize=auto;html=1;exitX=0.5;exitY=0;exitDx=0;exitDy=0;entryX=0.5;entryY=1;entryDx=0;entryDy=0;endArrow=circlePlus;endFill=0;startArrow=open;startFill=0;" edge="1" parent="WIyWlLk6GJQsqaUBKTNV-1" source="xrPTYMuA59O_ZaZZabX0-0" target="zkfFHV4jXpPFQw0GAbJ--0">
          <mxGeometry relative="1" as="geometry" />
        </mxCell>
        <mxCell id="zkfFHV4jXpPFQw0GAbJ--0" value="Player" style="swimlane;fontStyle=0;align=center;verticalAlign=top;childLayout=stackLayout;horizontal=1;startSize=26;horizontalStack=0;resizeParent=1;resizeLast=0;collapsible=1;marginBottom=0;rounded=0;shadow=0;strokeWidth=1;" vertex="1" parent="WIyWlLk6GJQsqaUBKTNV-1">
          <mxGeometry x="-300" y="-380" width="350" height="220" as="geometry">
            <mxRectangle x="230" y="140" width="160" height="26" as="alternateBounds" />
          </mxGeometry>
        </mxCell>
        <mxCell id="zkfFHV4jXpPFQw0GAbJ--1" value="- id: int&#xa;- username: String&#xa;- friendList: ArrayList&lt;Player&gt;&#xa;- statistics: PlayerRanking&#xa;- penaltyPoints: int" style="text;align=left;verticalAlign=top;spacingLeft=4;spacingRight=4;overflow=hidden;rotatable=0;points=[[0,0.5],[1,0.5]];portConstraint=eastwest;" vertex="1" parent="zkfFHV4jXpPFQw0GAbJ--0">
          <mxGeometry y="26" width="350" height="94" as="geometry" />
        </mxCell>
        <mxCell id="zkfFHV4jXpPFQw0GAbJ--4" value="" style="line;html=1;strokeWidth=1;align=left;verticalAlign=middle;spacingTop=-1;spacingLeft=3;spacingRight=3;rotatable=0;labelPosition=right;points=[];portConstraint=eastwest;" vertex="1" parent="zkfFHV4jXpPFQw0GAbJ--0">
          <mxGeometry y="120" width="350" height="8" as="geometry" />
        </mxCell>
        <mxCell id="zkfFHV4jXpPFQw0GAbJ--5" value="+ viewLeaderboard(): Leaderboard&#xa;+ viewLeaderboard(friends: friendList): Leaderboard&#xa;+ searchPlayer(username: String): Player&#xa;+ sortLeaderboard(criteria: String): ArrayList&lt;PlayerRanking&gt;&#xa;+ toggleSortOrder(): voidÂ &#xa;+ penalty(): void&#xa;&#xa;" style="text;align=left;verticalAlign=top;spacingLeft=4;spacingRight=4;overflow=hidden;rotatable=0;points=[[0,0.5],[1,0.5]];portConstraint=eastwest;" vertex="1" parent="zkfFHV4jXpPFQw0GAbJ--0">
          <mxGeometry y="128" width="350" height="92" as="geometry" />
        </mxCell>
        <mxCell id="IPq0iWJJUoORb-Mat52u-0" style="edgeStyle=orthogonalEdgeStyle;rounded=0;orthogonalLoop=1;jettySize=auto;html=1;entryX=0;entryY=0.415;entryDx=0;entryDy=0;entryPerimeter=0;" edge="1" parent="zkfFHV4jXpPFQw0GAbJ--0" target="zkfFHV4jXpPFQw0GAbJ--1">
          <mxGeometry relative="1" as="geometry">
            <mxPoint y="65" as="sourcePoint" />
          </mxGeometry>
        </mxCell>
        <mxCell id="J0lEsb-ycpTpJLVbtf5_-1" style="rounded=0;orthogonalLoop=1;jettySize=auto;html=1;exitX=0;exitY=1;exitDx=0;exitDy=0;entryX=1;entryY=0;entryDx=0;entryDy=0;endArrow=open;endFill=0;" edge="1" parent="WIyWlLk6GJQsqaUBKTNV-1" source="M32K4DxWbjnmmSt8D02l-0" target="xrPTYMuA59O_ZaZZabX0-0">
          <mxGeometry relative="1" as="geometry" />
        </mxCell>
        <mxCell id="M32K4DxWbjnmmSt8D02l-0" value="Matchmaking" style="swimlane;fontStyle=0;align=center;verticalAlign=top;childLayout=stackLayout;horizontal=1;startSize=26;horizontalStack=0;resizeParent=1;resizeLast=0;collapsible=1;marginBottom=0;rounded=0;shadow=0;strokeWidth=1;" vertex="1" parent="WIyWlLk6GJQsqaUBKTNV-1">
          <mxGeometry x="330" y="-360" width="240" height="200" as="geometry">
            <mxRectangle x="230" y="140" width="160" height="26" as="alternateBounds" />
          </mxGeometry>
        </mxCell>
        <mxCell id="M32K4DxWbjnmmSt8D02l-1" value="- queue: Queue&#xa;- matchFound: Boolean" style="text;align=left;verticalAlign=top;spacingLeft=4;spacingRight=4;overflow=hidden;rotatable=0;points=[[0,0.5],[1,0.5]];portConstraint=eastwest;" vertex="1" parent="M32K4DxWbjnmmSt8D02l-0">
          <mxGeometry y="26" width="240" height="64" as="geometry" />
        </mxCell>
        <mxCell id="M32K4DxWbjnmmSt8D02l-2" value="" style="line;html=1;strokeWidth=1;align=left;verticalAlign=middle;spacingTop=-1;spacingLeft=3;spacingRight=3;rotatable=0;labelPosition=right;points=[];portConstraint=eastwest;" vertex="1" parent="M32K4DxWbjnmmSt8D02l-0">
          <mxGeometry y="90" width="240" height="8" as="geometry" />
        </mxCell>
        <mxCell id="M32K4DxWbjnmmSt8D02l-3" value="+ findMatch(): Game&#xa;+ displayMatchConfirmation() : String&#xa;+ penaltyTime() : int&#xa;+ friendInvite(): Player&#xa;+ inviteAccepted(): Game" style="text;align=left;verticalAlign=top;spacingLeft=4;spacingRight=4;overflow=hidden;rotatable=0;points=[[0,0.5],[1,0.5]];portConstraint=eastwest;" vertex="1" parent="M32K4DxWbjnmmSt8D02l-0">
          <mxGeometry y="98" width="240" height="102" as="geometry" />
        </mxCell>
        <mxCell id="M32K4DxWbjnmmSt8D02l-4" value="Rank" style="swimlane;fontStyle=0;align=center;verticalAlign=top;childLayout=stackLayout;horizontal=1;startSize=26;horizontalStack=0;resizeParent=1;resizeLast=0;collapsible=1;marginBottom=0;rounded=0;shadow=0;strokeWidth=1;" vertex="1" parent="WIyWlLk6GJQsqaUBKTNV-1">
          <mxGeometry x="-250" y="310" width="250" height="150" as="geometry">
            <mxRectangle x="230" y="140" width="160" height="26" as="alternateBounds" />
          </mxGeometry>
        </mxCell>
        <mxCell id="M32K4DxWbjnmmSt8D02l-5" value="- rankName: String&#xa;- ratingLowerBound: int&#xa;- ratingUpperBound: int" style="text;align=left;verticalAlign=top;spacingLeft=4;spacingRight=4;overflow=hidden;rotatable=0;points=[[0,0.5],[1,0.5]];portConstraint=eastwest;" vertex="1" parent="M32K4DxWbjnmmSt8D02l-4">
          <mxGeometry y="26" width="250" height="64" as="geometry" />
        </mxCell>
        <mxCell id="M32K4DxWbjnmmSt8D02l-6" value="" style="line;html=1;strokeWidth=1;align=left;verticalAlign=middle;spacingTop=-1;spacingLeft=3;spacingRight=3;rotatable=0;labelPosition=right;points=[];portConstraint=eastwest;" vertex="1" parent="M32K4DxWbjnmmSt8D02l-4">
          <mxGeometry y="90" width="250" height="8" as="geometry" />
        </mxCell>
        <mxCell id="M32K4DxWbjnmmSt8D02l-7" value="+ updateRank(player: Player, rating: int): void" style="text;align=left;verticalAlign=top;spacingLeft=4;spacingRight=4;overflow=hidden;rotatable=0;points=[[0,0.5],[1,0.5]];portConstraint=eastwest;" vertex="1" parent="M32K4DxWbjnmmSt8D02l-4">
          <mxGeometry y="98" width="250" height="52" as="geometry" />
        </mxCell>
        <mxCell id="M32K4DxWbjnmmSt8D02l-8" value="Leaderboard" style="swimlane;fontStyle=0;align=center;verticalAlign=top;childLayout=stackLayout;horizontal=1;startSize=26;horizontalStack=0;resizeParent=1;resizeLast=0;collapsible=1;marginBottom=0;rounded=0;shadow=0;strokeWidth=1;" vertex="1" parent="WIyWlLk6GJQsqaUBKTNV-1">
          <mxGeometry x="-950" y="-380" width="360" height="200" as="geometry">
            <mxRectangle x="230" y="140" width="160" height="26" as="alternateBounds" />
          </mxGeometry>
        </mxCell>
        <mxCell id="M32K4DxWbjnmmSt8D02l-9" value="- rankings: ArrayList&lt;Player&gt;" style="text;align=left;verticalAlign=top;spacingLeft=4;spacingRight=4;overflow=hidden;rotatable=0;points=[[0,0.5],[1,0.5]];portConstraint=eastwest;" vertex="1" parent="M32K4DxWbjnmmSt8D02l-8">
          <mxGeometry y="26" width="360" height="34" as="geometry" />
        </mxCell>
        <mxCell id="M32K4DxWbjnmmSt8D02l-10" value="" style="line;html=1;strokeWidth=1;align=left;verticalAlign=middle;spacingTop=-1;spacingLeft=3;spacingRight=3;rotatable=0;labelPosition=right;points=[];portConstraint=eastwest;" vertex="1" parent="M32K4DxWbjnmmSt8D02l-8">
          <mxGeometry y="60" width="360" height="8" as="geometry" />
        </mxCell>
        <mxCell id="M32K4DxWbjnmmSt8D02l-11" value="+ getTopPlayers: ArrayList&lt;Player&gt;&#xa;+ updateLeaderboard(): void&#xa;+ sortPlayers(criteria: String): ArrayList&lt;Player&gt;&#xa;+ toggleSortOrder(): void&#xa;+ searchPlayer(username: String): Player&#xa;+ filterFriends(friendList: ArrayList&lt;Player&gt;): ArrayList&lt;Player&gt;" style="text;align=left;verticalAlign=top;spacingLeft=4;spacingRight=4;overflow=hidden;rotatable=0;points=[[0,0.5],[1,0.5]];portConstraint=eastwest;" vertex="1" parent="M32K4DxWbjnmmSt8D02l-8">
          <mxGeometry y="68" width="360" height="132" as="geometry" />
        </mxCell>
        <mxCell id="xrPTYMuA59O_ZaZZabX0-0" value="PlayerRanking" style="swimlane;fontStyle=0;align=center;verticalAlign=top;childLayout=stackLayout;horizontal=1;startSize=26;horizontalStack=0;resizeParent=1;resizeLast=0;collapsible=1;marginBottom=0;rounded=0;shadow=0;strokeWidth=1;" vertex="1" parent="WIyWlLk6GJQsqaUBKTNV-1">
          <mxGeometry x="-230" y="-40" width="210" height="170" as="geometry">
            <mxRectangle x="230" y="140" width="160" height="26" as="alternateBounds" />
          </mxGeometry>
        </mxCell>
        <mxCell id="xrPTYMuA59O_ZaZZabX0-1" value="- rank: Rank&#xa;- rating: int&#xa;- winLossRatio: float&#xa;- totalWins: int" style="text;align=left;verticalAlign=top;spacingLeft=4;spacingRight=4;overflow=hidden;rotatable=0;points=[[0,0.5],[1,0.5]];portConstraint=eastwest;" vertex="1" parent="xrPTYMuA59O_ZaZZabX0-0">
          <mxGeometry y="26" width="210" height="64" as="geometry" />
        </mxCell>
        <mxCell id="xrPTYMuA59O_ZaZZabX0-2" value="" style="line;html=1;strokeWidth=1;align=left;verticalAlign=middle;spacingTop=-1;spacingLeft=3;spacingRight=3;rotatable=0;labelPosition=right;points=[];portConstraint=eastwest;" vertex="1" parent="xrPTYMuA59O_ZaZZabX0-0">
          <mxGeometry y="90" width="210" height="8" as="geometry" />
        </mxCell>
        <mxCell id="xrPTYMuA59O_ZaZZabX0-3" value="+ getRank(): Rank&#xa;+ getRating(): int&#xa;+ getwlr(): float&#xa;+ getTotalWins(): int" style="text;align=left;verticalAlign=top;spacingLeft=4;spacingRight=4;overflow=hidden;rotatable=0;points=[[0,0.5],[1,0.5]];portConstraint=eastwest;" vertex="1" parent="xrPTYMuA59O_ZaZZabX0-0">
          <mxGeometry y="98" width="210" height="72" as="geometry" />
        </mxCell>
        <mxCell id="xrPTYMuA59O_ZaZZabX0-5" style="rounded=0;orthogonalLoop=1;jettySize=auto;html=1;exitX=0.5;exitY=0;exitDx=0;exitDy=0;entryX=0.503;entryY=1.002;entryDx=0;entryDy=0;endArrow=circlePlus;endFill=0;startArrow=open;startFill=0;entryPerimeter=0;" edge="1" parent="WIyWlLk6GJQsqaUBKTNV-1" source="M32K4DxWbjnmmSt8D02l-4" target="xrPTYMuA59O_ZaZZabX0-3">
          <mxGeometry relative="1" as="geometry">
            <mxPoint x="-125" y="-20" as="sourcePoint" />
            <mxPoint x="-115" y="-160" as="targetPoint" />
          </mxGeometry>
        </mxCell>
        <mxCell id="xrPTYMuA59O_ZaZZabX0-6" style="rounded=0;orthogonalLoop=1;jettySize=auto;html=1;exitX=0.995;exitY=-0.006;exitDx=0;exitDy=0;endArrow=open;endFill=0;startArrow=diamond;startFill=0;targetPerimeterSpacing=0;endSize=6;startSize=12;exitPerimeter=0;" edge="1" parent="WIyWlLk6GJQsqaUBKTNV-1" source="M32K4DxWbjnmmSt8D02l-11">
          <mxGeometry relative="1" as="geometry">
            <mxPoint x="-300" y="-313" as="targetPoint" />
          </mxGeometry>
        </mxCell>
        <mxCell id="J0lEsb-ycpTpJLVbtf5_-0" style="rounded=0;orthogonalLoop=1;jettySize=auto;html=1;exitX=0;exitY=0;exitDx=0;exitDy=0;endArrow=open;endFill=0;startArrow=diamond;startFill=0;targetPerimeterSpacing=0;endSize=6;startSize=12;entryX=1;entryY=0.5;entryDx=0;entryDy=0;" edge="1" parent="WIyWlLk6GJQsqaUBKTNV-1" source="J0lEsb-ycpTpJLVbtf5_-2" target="zkfFHV4jXpPFQw0GAbJ--1">
          <mxGeometry relative="1" as="geometry">
            <mxPoint x="-290" y="-303" as="targetPoint" />
            <mxPoint x="-582" y="-303" as="sourcePoint" />
          </mxGeometry>
        </mxCell>
        <mxCell id="J0lEsb-ycpTpJLVbtf5_-2" value="Queue" style="swimlane;fontStyle=0;align=center;verticalAlign=top;childLayout=stackLayout;horizontal=1;startSize=26;horizontalStack=0;resizeParent=1;resizeLast=0;collapsible=1;marginBottom=0;rounded=0;shadow=0;strokeWidth=1;" vertex="1" parent="WIyWlLk6GJQsqaUBKTNV-1">
          <mxGeometry x="320" y="-70" width="240" height="200" as="geometry">
            <mxRectangle x="230" y="140" width="160" height="26" as="alternateBounds" />
          </mxGeometry>
        </mxCell>
        <mxCell id="J0lEsb-ycpTpJLVbtf5_-3" value="- players: ArrayList&lt;Player&gt;" style="text;align=left;verticalAlign=top;spacingLeft=4;spacingRight=4;overflow=hidden;rotatable=0;points=[[0,0.5],[1,0.5]];portConstraint=eastwest;" vertex="1" parent="J0lEsb-ycpTpJLVbtf5_-2">
          <mxGeometry y="26" width="240" height="64" as="geometry" />
        </mxCell>
        <mxCell id="J0lEsb-ycpTpJLVbtf5_-4" value="" style="line;html=1;strokeWidth=1;align=left;verticalAlign=middle;spacingTop=-1;spacingLeft=3;spacingRight=3;rotatable=0;labelPosition=right;points=[];portConstraint=eastwest;" vertex="1" parent="J0lEsb-ycpTpJLVbtf5_-2">
          <mxGeometry y="90" width="240" height="8" as="geometry" />
        </mxCell>
        <mxCell id="J0lEsb-ycpTpJLVbtf5_-5" value="+ addToQueue(player: Player): void&#xa;+ removeFromQueue(player: Player): void&#xa;+ sortQueue(): ArrayList&lt;&gt;" style="text;align=left;verticalAlign=top;spacingLeft=4;spacingRight=4;overflow=hidden;rotatable=0;points=[[0,0.5],[1,0.5]];portConstraint=eastwest;" vertex="1" parent="J0lEsb-ycpTpJLVbtf5_-2">
          <mxGeometry y="98" width="240" height="102" as="geometry" />
        </mxCell>
        <mxCell id="J0lEsb-ycpTpJLVbtf5_-6" style="rounded=0;orthogonalLoop=1;jettySize=auto;html=1;exitX=0.5;exitY=0;exitDx=0;exitDy=0;entryX=0.488;entryY=1.019;entryDx=0;entryDy=0;endArrow=circlePlus;endFill=0;startArrow=open;startFill=0;entryPerimeter=0;" edge="1" parent="WIyWlLk6GJQsqaUBKTNV-1" source="J0lEsb-ycpTpJLVbtf5_-2" target="M32K4DxWbjnmmSt8D02l-3">
          <mxGeometry relative="1" as="geometry">
            <mxPoint x="-115" y="-30" as="sourcePoint" />
            <mxPoint x="-115" y="-150" as="targetPoint" />
          </mxGeometry>
        </mxCell>
      </root>
    </mxGraphModel>
  </diagram>
</mxfile>
